<mxfile host="app.diagrams.net" agent="Mozilla/5.0 (Windows NT 10.0; Win64; x64) AppleWebKit/537.36 (KHTML, like Gecko) Chrome/135.0.0.0 Safari/537.36" version="26.2.10">
  <diagram name="第 1 页" id="T-IgJ6nV17lonFy1acR-">
    <mxGraphModel dx="2356" dy="902" grid="0" gridSize="10" guides="1" tooltips="1" connect="1" arrows="1" fold="1" page="0" pageScale="1" pageWidth="827" pageHeight="1169" math="0" shadow="0">
      <root>
        <mxCell id="0" />
        <mxCell id="1" parent="0" />
        <mxCell id="pBlUL2c_ZpOvYH_aYNHn-12" style="edgeStyle=none;curved=1;rounded=0;orthogonalLoop=1;jettySize=auto;html=1;fontSize=16;startSize=8;endSize=8;" edge="1" parent="1" source="pBlUL2c_ZpOvYH_aYNHn-1" target="pBlUL2c_ZpOvYH_aYNHn-4">
          <mxGeometry relative="1" as="geometry" />
        </mxCell>
        <mxCell id="pBlUL2c_ZpOvYH_aYNHn-1" value="免费版" style="rounded=0;whiteSpace=wrap;html=1;fontSize=16;fillColor=#d5e8d4;strokeColor=#82b366;" vertex="1" parent="1">
          <mxGeometry x="-558" y="115" width="120" height="60" as="geometry" />
        </mxCell>
        <mxCell id="pBlUL2c_ZpOvYH_aYNHn-10" style="edgeStyle=none;curved=1;rounded=0;orthogonalLoop=1;jettySize=auto;html=1;fontSize=16;startSize=8;endSize=8;" edge="1" parent="1" source="pBlUL2c_ZpOvYH_aYNHn-2" target="pBlUL2c_ZpOvYH_aYNHn-7">
          <mxGeometry relative="1" as="geometry" />
        </mxCell>
        <mxCell id="pBlUL2c_ZpOvYH_aYNHn-11" style="edgeStyle=orthogonalEdgeStyle;rounded=0;orthogonalLoop=1;jettySize=auto;html=1;exitX=1;exitY=0.5;exitDx=0;exitDy=0;entryX=0;entryY=0.5;entryDx=0;entryDy=0;fontSize=16;startSize=8;endSize=8;curved=1;" edge="1" parent="1" source="pBlUL2c_ZpOvYH_aYNHn-2" target="pBlUL2c_ZpOvYH_aYNHn-8">
          <mxGeometry relative="1" as="geometry" />
        </mxCell>
        <mxCell id="pBlUL2c_ZpOvYH_aYNHn-2" value="订阅版" style="rounded=0;whiteSpace=wrap;html=1;fontSize=16;fillColor=#d5e8d4;strokeColor=#82b366;" vertex="1" parent="1">
          <mxGeometry x="-558" y="226" width="120" height="60" as="geometry" />
        </mxCell>
        <mxCell id="pBlUL2c_ZpOvYH_aYNHn-13" style="edgeStyle=none;curved=1;rounded=0;orthogonalLoop=1;jettySize=auto;html=1;entryX=0;entryY=0.5;entryDx=0;entryDy=0;fontSize=16;startSize=8;endSize=8;" edge="1" parent="1" source="pBlUL2c_ZpOvYH_aYNHn-4">
          <mxGeometry relative="1" as="geometry">
            <mxPoint x="102" y="145" as="targetPoint" />
          </mxGeometry>
        </mxCell>
        <mxCell id="pBlUL2c_ZpOvYH_aYNHn-4" value="&lt;p&gt;基础建模功能，模型浏览，模型分享&lt;/p&gt;" style="rounded=1;whiteSpace=wrap;html=1;fontSize=16;fillColor=#fff2cc;strokeColor=#d6b656;" vertex="1" parent="1">
          <mxGeometry x="-318" y="115" width="300" height="60" as="geometry" />
        </mxCell>
        <mxCell id="pBlUL2c_ZpOvYH_aYNHn-16" style="edgeStyle=none;curved=1;rounded=0;orthogonalLoop=1;jettySize=auto;html=1;entryX=0;entryY=0.5;entryDx=0;entryDy=0;fontSize=16;startSize=8;endSize=8;" edge="1" parent="1" source="pBlUL2c_ZpOvYH_aYNHn-7">
          <mxGeometry relative="1" as="geometry">
            <mxPoint x="102" y="256" as="targetPoint" />
          </mxGeometry>
        </mxCell>
        <mxCell id="pBlUL2c_ZpOvYH_aYNHn-7" value="高级建模功能，模型优化，专业技术支持" style="rounded=1;whiteSpace=wrap;html=1;fontSize=16;fillColor=#fff2cc;strokeColor=#d6b656;" vertex="1" parent="1">
          <mxGeometry x="-318" y="226" width="300" height="60" as="geometry" />
        </mxCell>
        <mxCell id="pBlUL2c_ZpOvYH_aYNHn-17" style="edgeStyle=none;curved=1;rounded=0;orthogonalLoop=1;jettySize=auto;html=1;entryX=0;entryY=0.5;entryDx=0;entryDy=0;fontSize=16;startSize=8;endSize=8;" edge="1" parent="1" source="pBlUL2c_ZpOvYH_aYNHn-8">
          <mxGeometry relative="1" as="geometry">
            <mxPoint x="102" y="367" as="targetPoint" />
          </mxGeometry>
        </mxCell>
        <mxCell id="pBlUL2c_ZpOvYH_aYNHn-8" value="定制化服务" style="rounded=1;whiteSpace=wrap;html=1;fontSize=16;fillColor=#fff2cc;strokeColor=#d6b656;" vertex="1" parent="1">
          <mxGeometry x="-318" y="337" width="300" height="60" as="geometry" />
        </mxCell>
        <mxCell id="pBlUL2c_ZpOvYH_aYNHn-18" value="0￥/月" style="shape=hexagon;perimeter=hexagonPerimeter2;whiteSpace=wrap;html=1;fixedSize=1;fontSize=16;fillColor=#f8cecc;strokeColor=#b85450;" vertex="1" parent="1">
          <mxGeometry x="102" y="105" width="120" height="80" as="geometry" />
        </mxCell>
        <mxCell id="pBlUL2c_ZpOvYH_aYNHn-19" value="30,00￥/月" style="shape=hexagon;perimeter=hexagonPerimeter2;whiteSpace=wrap;html=1;fixedSize=1;fontSize=16;fillColor=#f8cecc;strokeColor=#b85450;" vertex="1" parent="1">
          <mxGeometry x="102" y="216" width="120" height="80" as="geometry" />
        </mxCell>
        <mxCell id="pBlUL2c_ZpOvYH_aYNHn-20" value="单独报价" style="shape=hexagon;perimeter=hexagonPerimeter2;whiteSpace=wrap;html=1;fixedSize=1;fontSize=16;fillColor=#f8cecc;strokeColor=#b85450;" vertex="1" parent="1">
          <mxGeometry x="102" y="327" width="120" height="80" as="geometry" />
        </mxCell>
      </root>
    </mxGraphModel>
  </diagram>
</mxfile>
